# xmcd CD database file
#
# Track frame offsets:
#	150
#	14777
#	33279
#	54784
#	78483
#	92858
#	108058
#	129160
#	142502
#	156112
#	171099
#	188373
#	209475
#	221255
#	238007
#	256174
#	274518
#	296207
#	312374
#
# Disc length: 4403 seconds
#
# Revision: 0
# Processed by: cddbd v1.5.1PL0 Copyright (c) Steve Scherf et al.
# Submitted via: CDex 1.51
#
DISCID=f8113113
DTITLE=John Denver - John Denver's greatest hits
DYEAR=2001
DGENRE=Country
TTITLE0=Take me home , country roads
TTITLE1=Leaving on a jet plane
TTITLE2=Rocky mountain high
TTITLE3=Sunshine on my shoulders
TTITLE4=Annie's song
TTITLE5=For you
TTITLE6=The flower that shattered the stone
TTITLE7=Follow me
TTITLE8=For baby
TTITLE9=Rhymes and reasons
TTITLE10=I want to live
TTITLE11=Poems , prayers and promises
TTITLE12=I'm a faraway land
TTITLE13=Goodbye again
TTITLE14=Thanks to you
TTITLE15=Wind song
TTITLE16=The gift you are
TTITLE17=Two different directions
TTITLE18=Potter's wind
EXTD=YEAR: 2001
EXTT0=
EXTT1=
EXTT2=
EXTT3=
EXTT4=
EXTT5=
EXTT6=
EXTT7=
EXTT8=
EXTT9=
EXTT10=
EXTT11=
EXTT12=
EXTT13=
EXTT14=
EXTT15=
EXTT16=
EXTT17=
EXTT18=
PLAYORDER=
